<?xml version="1.0" encoding="utf-8"?>
<!-- Generator: Adobe Illustrator 19.2.0, SVG Export Plug-In . SVG Version: 6.00 Build 0)  -->
<svg version="1.1" id="UCM_Logo" xmlns="http://www.w3.org/2000/svg" xmlns:xlink="http://www.w3.org/1999/xlink" x="0px" y="0px"
	 viewBox="0 0 402.1 87.3" style="enable-background:new 0 0 402.1 87.3;" xml:space="preserve">
<style type="text/css">
	.st0{fill:#039BE5;}
	.st1{fill:#01579B;}
</style>
<g>
	<g>
		<g>
			<g>
				<path class="st0" d="M56.5,54.5c-6.8,0-13.2-4-16.1-10.2l0,0c-2.3-4.8-2.3-10.6,0.1-15.5c3-6.1,9.2-10,16-10
					c6.8,0,13.2,4,16.1,10.2l9-4.3C77.1,15.1,67.2,8.9,56.5,8.9c-10.4,0-20,5.9-24.7,15.1l0,0c-0.1,0.2-0.2,0.5-0.3,0.8
					c0,0,0-0.3-0.1,0.2h0c-4.4,9-3.3,20.4,3,28.7l0-0.1c5.2,6.8,13.4,10.9,22.1,10.9c10.7,0,20.5-6.2,25.1-15.9l-9-4.3
					C69.7,50.5,63.4,54.5,56.5,54.5z"/>
				<path class="st1" d="M95.4,3.5l-7.8,6.3c12.7,15.8,11.4,38.5-3,53c-7.4,7.4-17.4,11.5-27.7,11.6c-0.1,0-0.1,0-0.2,0
					c-0.1,0-0.2,0-0.4,0c-10.3-0.1-20.2-4.2-27.6-11.6c-14.5-14.5-15.8-37.2-3-53l-7.8-6.3C10.5,13,6.6,25,7.3,37.2
					c0.7,12.3,5.8,23.9,14.5,32.6C29,77,38.2,81.7,47.9,83.5l0,0c2.4,0.4,4.9,0.7,7.3,0.7c0.3,0,0.7,0,1,0c0.1,0,0.2,0,0.3,0
					c0,0,0.1,0,0.1,0c0,0,0.1,0,0.1,0c0.1,0,0.2,0,0.3,0c0.3,0,0.7,0,1,0c2.4-0.1,4.9-0.3,7.3-0.7l0,0c9.8-1.8,18.9-6.5,26.1-13.7
					c8.7-8.7,13.9-20.3,14.5-32.6C106.9,25,103.1,13,95.4,3.5z"/>
			</g>
		</g>
	</g>
	<g>
		<g>
			<path class="st1" d="M127.5,26.6V9.3h7.6v17c0,3.4,2,5.9,6.1,5.9c4,0,6.1-2.5,6.1-5.9v-17h7.5v17.2c0,7.2-4.4,12.3-13.6,12.3
				C131.9,38.8,127.5,33.7,127.5,26.6z"/>
			<path class="st1" d="M173.2,38.3V26.2c0-2.6-1.3-3.5-3.4-3.5c-2,0-3.3,1.1-4.1,2v13.5H159v-21h6.7v2.6c1.3-1.5,3.7-3.1,7.2-3.1
				c4.8,0,6.9,2.8,6.9,6.6v14.8H173.2z"/>
			<path class="st1" d="M183.4,11.6c0-2.1,1.7-3.8,3.8-3.8c2.1,0,3.8,1.7,3.8,3.8s-1.7,3.9-3.8,3.9C185,15.5,183.4,13.7,183.4,11.6z
				 M183.8,38.3v-21h6.7v21H183.8z"/>
			<path class="st1" d="M195.9,32.6v-9.5h-3.5v-5.8h3.5v-5.7h6.6v5.7h4.3v5.8h-4.3v7.6c0,1.2,0.7,2.1,1.9,2.1c0.7,0,1.5-0.3,1.7-0.5
				l1.3,5c-0.8,0.8-2.5,1.4-4.9,1.4C198.2,38.8,195.9,36.7,195.9,32.6z"/>
			<path class="st1" d="M207.9,27.8c0-6.1,4.6-11,11.1-11c6.2,0,10.7,4.6,10.7,11.7v1.4h-14.9c0.4,2,2.2,3.7,5.2,3.7
				c1.5,0,4-0.7,5.2-1.8l2.8,4.2c-2.1,1.9-5.6,2.8-8.8,2.8C212.9,38.8,207.9,34.6,207.9,27.8z M219,22c-2.9,0-4,2.1-4.3,3.6h8.6
				C223.2,24.1,222.1,22,219,22z"/>
			<path class="st1" d="M246.3,38.3v-2.4c-1.7,2-3.9,3-6.2,3c-5.2,0-9.3-3.9-9.3-11c0-6.9,4-11,9.3-11c2.3,0,4.5,0.9,6.2,3V9.3h6.6
				v28.9H246.3z M246.3,31v-6.4c-0.9-1.1-2.6-1.9-4-1.9c-2.6,0-4.6,2-4.6,5.1c0,3.1,2,5.1,4.6,5.1C243.7,32.9,245.4,32.1,246.3,31z"
				/>
			<path class="st1" d="M265.9,23.8c0-8.9,6.8-15,15.7-15c7,0,10.7,3.9,12.6,7.8l-6.4,3c-1-2.3-3.4-4.2-6.2-4.2
				c-4.7,0-8.1,3.6-8.1,8.4c0,4.7,3.3,8.4,8.1,8.4c2.8,0,5.2-1.9,6.2-4.2l6.4,3c-1.9,3.7-5.6,7.8-12.6,7.8
				C272.6,38.8,265.9,32.7,265.9,23.8z"/>
			<path class="st1" d="M296.3,38.3V9.3h6.7v28.9H296.3z"/>
			<path class="st1" d="M319.4,38.3v-2.1c-1.3,1.6-3.8,2.6-6.5,2.6c-3.2,0-7.2-2.2-7.2-6.9c0-5.1,4-6.7,7.2-6.7
				c2.8,0,5.2,0.9,6.5,2.4v-2.5c0-1.8-1.6-3-4.3-3c-2.1,0-4.3,0.8-5.9,2.2l-2.4-4.2c2.7-2.3,6.3-3.3,9.5-3.3c5,0,9.8,1.9,9.8,8.4
				v13.1H319.4z M319.4,32.9V31c-0.7-1-2.3-1.5-3.7-1.5c-1.8,0-3.3,0.8-3.3,2.4s1.6,2.4,3.3,2.4C317.1,34.4,318.7,33.9,319.4,32.9z"
				/>
			<path class="st1" d="M329.6,11.6c0-2.1,1.7-3.8,3.8-3.8c2.1,0,3.8,1.7,3.8,3.8s-1.7,3.9-3.8,3.9
				C331.2,15.5,329.6,13.7,329.6,11.6z M330,38.3v-21h6.7v21H330z"/>
			<path class="st1" d="M367.1,38.3V25.5c0-1.6-0.8-2.8-2.8-2.8c-1.8,0-3.1,1.2-3.8,2v13.5h-6.7V25.5c0-1.6-0.7-2.8-2.8-2.8
				c-1.8,0-3,1.2-3.7,2v13.5h-6.7v-21h6.7v2.6c0.9-1.2,3.6-3.1,6.9-3.1c3,0,5.1,1.3,5.9,3.7c1.2-1.8,3.9-3.7,7.2-3.7
				c3.9,0,6.3,2,6.3,6.3v15.2H367.1z"/>
			<path class="st1" d="M376,35.6l2.8-4.6c1.6,1.4,4.9,2.8,7.4,2.8c2,0,2.8-0.7,2.8-1.6c0-2.7-12.2,0-12.2-8.5c0-3.7,3.2-6.9,9-6.9
				c3.5,0,6.5,1.1,8.8,2.8L392,24c-1.3-1.2-3.6-2.3-6.2-2.3c-1.6,0-2.6,0.7-2.6,1.5c0,2.4,12.2,0,12.2,8.6c0,4-3.5,6.9-9.5,6.9
				C382.1,38.8,378.2,37.5,376,35.6z"/>
		</g>
	</g>
	<g>
		<path class="st0" d="M151.6,73.2V53.9l-7.8,19.3h-2.6l-7.8-19.3v19.3h-5.9V45.6h8.2l6.7,16.7l6.7-16.7h8.3v27.6H151.6z"/>
		<path class="st0" d="M174,73.2v-2.1c-1.4,1.6-3.7,2.6-6.3,2.6c-3.2,0-7-2.2-7-6.6c0-4.7,3.8-6.5,7-6.5c2.6,0,5,0.9,6.3,2.4v-2.7
			c0-2-1.7-3.4-4.4-3.4c-2.2,0-4.1,0.8-5.8,2.4l-2-3.5c2.4-2.2,5.6-3.1,8.7-3.1c4.6,0,8.7,1.8,8.7,7.6v12.9H174z M174,68.4v-2.5
			c-0.9-1.2-2.5-1.7-4.2-1.7c-2.1,0-3.8,1.1-3.8,3c0,1.9,1.7,2.9,3.8,2.9C171.5,70.1,173.1,69.5,174,68.4z"/>
		<path class="st0" d="M197.1,73.2V61.1c0-2.8-1.4-3.7-3.7-3.7c-2.1,0-3.7,1.2-4.6,2.4v13.4h-5.3v-20h5.3v2.6c1.3-1.5,3.7-3.1,7-3.1
			c4.4,0,6.5,2.5,6.5,6.4v14.1H197.1z"/>
		<path class="st0" d="M218.8,73.2v-2.1c-1.4,1.6-3.7,2.6-6.3,2.6c-3.2,0-7-2.2-7-6.6c0-4.7,3.8-6.5,7-6.5c2.6,0,5,0.9,6.3,2.4v-2.7
			c0-2-1.7-3.4-4.4-3.4c-2.2,0-4.1,0.8-5.8,2.4l-2-3.5c2.4-2.2,5.6-3.1,8.7-3.1c4.6,0,8.7,1.8,8.7,7.6v12.9H218.8z M218.8,68.4v-2.5
			c-0.9-1.2-2.5-1.7-4.2-1.7c-2.1,0-3.8,1.1-3.8,3c0,1.9,1.7,2.9,3.8,2.9C216.3,70.1,217.9,69.5,218.8,68.4z"/>
		<path class="st0" d="M228,78.3l2.4-3.8c1.6,1.8,3.7,2.5,6.2,2.5c2.5,0,5.5-1.1,5.5-5v-2c-1.6,2-3.7,3.1-6.2,3.1
			c-5,0-8.8-3.5-8.8-10.2c0-6.5,3.8-10.2,8.8-10.2c2.4,0,4.6,1,6.2,3.1v-2.6h5.3v18.6c0,7.6-5.9,9.5-10.8,9.5
			C233.2,81.3,230.5,80.5,228,78.3z M242.1,66.1v-6.5c-0.9-1.3-2.8-2.3-4.5-2.3c-3,0-5,2.1-5,5.5c0,3.4,2.1,5.5,5,5.5
			C239.3,68.4,241.3,67.4,242.1,66.1z"/>
		<path class="st0" d="M250.5,63.2c0-5.8,4.3-10.5,10.3-10.5c6,0,10,4.5,10,11v1.2H256c0.3,2.5,2.4,4.6,5.8,4.6c1.7,0,4.1-0.7,5.3-2
			l2.3,3.4c-2,1.8-5.1,2.8-8.2,2.8C255.1,73.7,250.5,69.6,250.5,63.2z M260.9,56.9c-3.3,0-4.7,2.4-4.9,4.4h9.8
			C265.7,59.4,264.3,56.9,260.9,56.9z"/>
		<path class="st0" d="M298.7,73.2V60.6c0-1.9-0.8-3.2-3-3.2c-1.9,0-3.4,1.2-4.1,2.3v13.5h-5.3V60.6c0-1.9-0.8-3.2-3-3.2
			c-1.8,0-3.4,1.2-4.1,2.4v13.4h-5.3v-20h5.3v2.6c0.8-1.2,3.5-3.1,6.5-3.1c2.9,0,4.8,1.4,5.5,3.6c1.2-1.8,3.8-3.6,6.9-3.6
			c3.7,0,5.9,1.9,5.9,6v14.4H298.7z"/>
		<path class="st0" d="M307,63.2c0-5.8,4.3-10.5,10.3-10.5c6,0,10,4.5,10,11v1.2h-14.9c0.3,2.5,2.4,4.6,5.8,4.6c1.7,0,4.1-0.7,5.3-2
			l2.3,3.4c-2,1.8-5.1,2.8-8.2,2.8C311.6,73.7,307,69.6,307,63.2z M317.4,56.9c-3.3,0-4.7,2.4-4.9,4.4h9.8
			C322.2,59.4,320.8,56.9,317.4,56.9z"/>
		<path class="st0" d="M343.9,73.2V61.1c0-2.8-1.4-3.7-3.7-3.7c-2.1,0-3.7,1.2-4.6,2.4v13.4h-5.3v-20h5.3v2.6c1.3-1.5,3.7-3.1,7-3.1
			c4.4,0,6.5,2.5,6.5,6.4v14.1H343.9z"/>
		<path class="st0" d="M354.5,68.2V57.8h-3.3v-4.6h3.3v-5.5h5.3v5.5h4.1v4.6h-4.1v9c0,1.2,0.7,2.2,1.8,2.2c0.8,0,1.5-0.3,1.8-0.6
			l1.1,4c-0.8,0.7-2.2,1.3-4.4,1.3C356.5,73.7,354.5,71.8,354.5,68.2z"/>
	</g>
</g>
</svg>
