<?xml version="1.0" encoding="utf-8"?>
<!-- Generator: Adobe Illustrator 19.2.0, SVG Export Plug-In . SVG Version: 6.00 Build 0)  -->
<svg version="1.1" id="Layer_1" xmlns="http://www.w3.org/2000/svg" xmlns:xlink="http://www.w3.org/1999/xlink" x="0px" y="0px"
	 viewBox="0 0 133 119" style="enable-background:new 0 0 133 119;" xml:space="preserve">
<style type="text/css">
	.ellipse{fill:#015CA1;}
</style>
<g>
	<path class="ellipse" d="M40.3,65.9l1.1,1.5c5.9,7.6,15.1,12.2,24.8,12.2c10.1,0,19.7-5,25.5-13.3c0.2-0.3,0.3-0.8,0.2-1.2
		c-0.1-0.4-0.4-0.8-0.8-0.9L88.9,63c-0.6-0.3-1.4-0.1-1.8,0.5c-4.9,6.7-12.7,10.7-20.9,10.7c-8.2,0-16-4-20.8-10.6l-2.5-4.2
		c-3.3-7.1-3.3-15.4,0.2-22.4c4.3-8.8,13.4-14.4,23.2-14.4c8.2,0,16,4,20.9,10.7c0.4,0.6,1.2,0.7,1.8,0.5l2.3-1.1
		c0.4-0.2,0.7-0.5,0.8-0.9c0.1-0.4,0-0.8-0.2-1.2c-5.9-8.3-15.4-13.3-25.5-13.3c-11.5,0-22.4,6.6-27.7,16.9
		c-0.1,0.2-0.1,0.4-0.2,0.6L38,35.3C33.4,44.7,34.3,56.7,40.3,65.9C40.3,65.8,40.3,65.8,40.3,65.9z"/>
	<path class="ellipse" d="M115.1,13.2c-0.2-0.3-0.6-0.6-1-0.6c-0.1,0-0.1,0-0.2,0c-0.3,0-0.6,0.1-0.9,0.3l-1.9,1.6
		c-0.6,0.5-0.7,1.3-0.3,1.9c14,20.9,11,49.1-6.9,67.1C94,93.4,80.8,98.9,66.8,99l-0.2,0l-0.5,0c-14-0.2-27.1-5.7-36.9-15.5
		c-18-18-20.9-46.2-6.9-67.1c0.4-0.6,0.3-1.5-0.3-1.9L20,12.9c-0.3-0.2-0.6-0.3-0.9-0.3c-0.1,0-0.1,0-0.2,0c-0.4,0.1-0.8,0.3-1,0.6
		C10.8,23.7,7.5,36,8.2,48.8C9,63.4,15.1,77,25.3,87.3c8.4,8.4,19,14,30.8,16.1l1.7,0.3c0,0,0,0,0.1,0c2.2,0.3,4.5,0.5,6.8,0.6
		c0.4,0,0.8,0,1.2,0c0.1,0,0.3,0,0.3,0c0,0,0.4,0,0.4,0c0,0,0,0,0,0c0,0,0.3,0,0.3,0c0.4,0,0.8,0,1.2,0c2.1-0.1,4.2-0.2,6.3-0.5
		c0,0,0,0,0.1,0l2.3-0.4c11.7-2.2,22.4-7.7,30.8-16.1C117.9,77,124,63.4,124.8,48.8C125.5,36,122.2,23.7,115.1,13.2z"/>
</g>
</svg>
